<svg width="90" height="85" viewBox="0 0 90 85" fill="none" xmlns="http://www.w3.org/2000/svg">
<mask id="path-1-inside-1_29_26" fill="white">
<path d="M0.121933 8.20827C0.121933 3.78999 3.70365 0.208252 8.12193 0.208252H81.9733C86.3916 0.208252 89.9734 3.78997 89.9734 8.20825V76.6146C89.9734 81.0329 86.3916 84.6146 81.9734 84.6146H8.12194C3.70366 84.6146 0.121933 81.0329 0.121933 76.6146V8.20827Z"/>
</mask>
<path d="M-1.87807 8.20825C-1.87807 3.23769 2.15137 -0.791748 7.12193 -0.791748H82.9734C87.9439 -0.791748 91.9734 3.23769 91.9734 8.20825H87.9734C87.9734 4.34226 85.2871 1.20825 81.9734 1.20825H8.12193C4.80822 1.20825 2.12193 4.34226 2.12193 8.20825H-1.87807ZM91.9734 79.6146C91.9734 85.1375 87.4962 89.6146 81.9734 89.6146H8.12193C2.59909 89.6146 -1.87807 85.1375 -1.87807 79.6146L2.12193 76.6146C2.12193 78.2715 4.80822 79.6146 8.12193 79.6146H81.9734C85.2871 79.6146 87.9734 78.2715 87.9734 76.6146L91.9734 79.6146ZM8.12193 89.6146C2.59909 89.6146 -1.87807 85.1375 -1.87807 79.6146V8.20825C-1.87807 3.23769 2.15137 -0.791748 7.12193 -0.791748L8.12193 1.20825C4.80822 1.20825 2.12193 4.34226 2.12193 8.20825V76.6146C2.12193 78.2715 4.80822 79.6146 8.12193 79.6146V89.6146ZM82.9734 -0.791748C87.9439 -0.791748 91.9734 3.23769 91.9734 8.20825V79.6146C91.9734 85.1375 87.4962 89.6146 81.9734 89.6146V79.6146C85.2871 79.6146 87.9734 78.2715 87.9734 76.6146V8.20825C87.9734 4.34226 85.2871 1.20825 81.9734 1.20825L82.9734 -0.791748Z" fill="url(#paint0_linear_29_26)" mask="url(#path-1-inside-1_29_26)"/>
<path d="M38.3847 21.5688L26.9244 66.1464H37.4519L45.0476 43.9604L38.3847 21.5688Z" fill="#594B88"/>
<path d="M30.7001 42.0885L24.9216 64.4801L9.55624 19.9025H22.689L30.7001 42.0885Z" fill="#6D5AA8"/>
<path d="M61.5371 42.9707L68.058 64.9754L79.519 19.4858L67.5721 20.308L61.5371 42.9707Z" fill="#4A416E"/>
<path d="M53.0813 66.1464L41.0832 21.5688H54.1831L65.8139 66.1464H53.0813Z" fill="#7C69BF"/>
<defs>
<linearGradient id="paint0_linear_29_26" x1="45.0476" y1="0.208252" x2="45.0476" y2="84.6146" gradientUnits="userSpaceOnUse">
<stop offset="0.535632" stop-color="#7C69BF"/>
<stop offset="1" stop-color="#594B88"/>
</linearGradient>
</defs>
</svg>
